<?xml version="1.0" encoding="utf-8"?>
<!-- Generator: Adobe Illustrator 16.2.0, SVG Export Plug-In . SVG Version: 6.00 Build 0)  -->
<svg version="1.2" baseProfile="tiny" id="图层_1"
	 xmlns="http://www.w3.org/2000/svg" xmlns:xlink="http://www.w3.org/1999/xlink" x="0px" y="0px" width="148px" height="57px"
	 viewBox="0 0 148 57" xml:space="preserve">
<path fill="none" d="M50.154,15.121h8.978c2.092,0,3.626,0.42,4.602,1.26c0.974,0.84,1.461,2.155,1.461,3.946
	c0,1.327-0.3,2.41-0.902,3.25c-0.602,0.84-1.469,1.383-2.601,1.624l4.33,7.232h-4.105l-3.823-6.808H53.8v6.808h-3.646V15.121z"/>
<path fill="none" d="M58.271,18.206H53.8v4.357h4.472c1.21,0,2.051-0.164,2.523-0.494c0.472-0.33,0.708-0.896,0.708-1.697
	c0-0.792-0.23-1.352-0.69-1.679C60.353,18.369,59.505,18.206,58.271,18.206z"/>
<path fill="#961E23" d="M61.692,25.201c1.132-0.241,1.999-0.784,2.601-1.624c0.602-0.84,0.902-1.923,0.902-3.25
	c0-1.791-0.487-3.105-1.461-3.946c-0.976-0.84-2.51-1.26-4.602-1.26h-8.978v17.313H53.8v-6.808h4.294l3.823,6.808h4.105
	L61.692,25.201z M60.794,22.07c-0.472,0.33-1.313,0.494-2.523,0.494H53.8v-4.357h4.472c1.234,0,2.082,0.163,2.541,0.488
	c0.46,0.327,0.69,0.887,0.69,1.679C61.503,21.173,61.267,21.74,60.794,22.07z"/>
<polygon fill="#1B2E6A" points="22.433,18.16 16.828,18.16 16.828,15.145 31.834,15.145 31.834,18.16 26.207,18.16 26.207,32.434 
	22.433,32.434 "/>
<rect x="38.79" y="16.588" fill="#1B2E6A" width="3.487" height="15.845"/>
<path fill="#1B2E6A" d="M81.042,16.588h-3.541l-6.717,15.845h3.542l1.415-3.773h6.899l1.458,3.773h3.714L81.042,16.588z
	 M76.821,25.836l2.322-6.101l2.407,6.101H76.821z"/>
<rect x="93.368" y="16.588" fill="#1B2E6A" width="3.487" height="15.845"/>
<polygon fill="#1B2E6A" points="104.581,16.588 108.802,16.588 115.303,27.971 115.141,16.588 118.553,16.588 118.553,32.434 
	114.676,32.434 107.853,20.448 108.004,32.434 104.581,32.434 "/>
<path fill-rule="evenodd" fill="#1B2E6A" d="M15.489,49.982c0,0,22.207-11.127,51.21-11.127c31.185,0,53.152,12.489,53.152,12.489
	s-18.42-14.454-52.937-14.454C33.551,36.891,15.489,49.982,15.489,49.982z"/>
<path fill="#1B2E6A" d="M131.413,8.689c-1.059-1.059-2.339-1.588-3.841-1.588c-1.515,0-2.802,0.53-3.86,1.588
	c-1.06,1.059-1.589,2.345-1.589,3.856c0,1.512,0.527,2.797,1.582,3.856c1.055,1.059,2.341,1.588,3.86,1.588
	c1.506,0,2.789-0.529,3.848-1.588c1.059-1.059,1.588-2.344,1.588-3.856C133.001,11.034,132.471,9.748,131.413,8.689z M130.937,15.93
	c-0.925,0.929-2.049,1.393-3.372,1.393c-1.318,0-2.442-0.463-3.371-1.389c-0.93-0.926-1.394-2.056-1.394-3.388
	c0-1.332,0.464-2.463,1.394-3.392c0.929-0.929,2.053-1.393,3.371-1.393c1.318,0,2.441,0.466,3.368,1.396
	c0.928,0.931,1.392,2.061,1.392,3.388S131.861,15.001,130.937,15.93z"/>
<path fill="#192E63" d="M129.328,14.086c-0.179-0.377-0.365-0.672-0.557-0.885c-0.192-0.212-0.384-0.347-0.576-0.4
	c0.549-0.112,0.976-0.334,1.28-0.666c0.304-0.332,0.456-0.736,0.456-1.211c0-0.597-0.223-1.061-0.67-1.393
	c-0.446-0.333-1.068-0.499-1.863-0.499h-1.984v6.904h1.026v-2.873h0.623c0.219,0,0.427,0.101,0.624,0.302
	c0.197,0.202,0.384,0.505,0.563,0.908l0.725,1.663h1.246L129.328,14.086z M127.451,12.202h-1.011V9.908h0.838
	c0.536,0,0.928,0.087,1.176,0.262c0.248,0.174,0.372,0.467,0.372,0.875c0,0.386-0.116,0.675-0.346,0.868
	C128.25,12.106,127.907,12.202,127.451,12.202z"/>
</svg>
